<svg width="17" height="17" viewBox="0 0 17 17" fill="none" xmlns="http://www.w3.org/2000/svg">
    <path d="M1 12.25L5.31031 13.0517C6.81976 13.3452 8.31647 12.4888 8.82826 11.0387C9.51136 9.10323 11.8518 8.35252 13.5333 9.52953L16 11.3125M1 10.1875L3.54768 8.49807C4.60806 7.82329 5.97667 7.88104 6.97643 8.64276L9.25 10.375M1.75 16H15.25C15.6642 16 16 15.6642 16 15.25V1.75C16 1.33579 15.6642 1 15.25 1H1.75C1.33579 1 1 1.33579 1 1.75V15.25C1 15.6642 1.33579 16 1.75 16ZM14.125 4.375C14.125 5.20343 13.4534 5.875 12.625 5.875C11.7966 5.875 11.125 5.20343 11.125 4.375C11.125 3.54657 11.7966 2.875 12.625 2.875C13.4534 2.875 14.125 3.54657 14.125 4.375Z" stroke="#1F2937"/>
</svg>
