<svg width="169" height="232" viewBox="0 0 169 232" fill="none" xmlns="http://www.w3.org/2000/svg">
    <path d="M1 122V4.40762C1 2.52565 2.52565 1 4.40762 1C6.2896 1 7.81525 2.52565 7.81525 4.40762V227.349C7.81525 229.365 9.44987 231 11.4663 231C13.4827 231 15.1173 229.365 15.1173 227.349V25.4756C15.1173 23.2799 16.8972 21.5 19.0929 21.5C21.2885 21.5 23.0684 23.2799 23.0684 25.4756V204.443C23.0684 206.684 24.8847 208.5 27.1251 208.5C29.3656 208.5 31.1818 206.684 31.1818 204.443V18.7727C31.1818 16.6891 32.8709 15 34.9545 15C37.0382 15 38.7273 16.6891 38.7273 18.7727V217.43C38.7273 219.402 40.3256 221 42.2972 221C44.2688 221 45.8671 219.402 45.8671 217.43V64.9888C45.8671 63.062 47.429 61.5 49.3558 61.5C51.2826 61.5 52.8446 63.062 52.8446 64.9888V165.592C52.8446 167.474 54.3702 169 56.2522 169C58.1342 169 59.6598 167.474 59.6598 165.592V78.8639C59.6598 76.8297 61.4692 75.272 63.4808 75.5743C65.1087 75.819 66.3128 77.2176 66.3128 78.8639V153.917C66.3128 155.794 67.9963 157.223 69.8487 156.919C71.3189 156.677 72.3979 155.407 72.3979 153.917V103.002C72.3979 101.344 73.7419 100 75.3998 100C77.0577 100 78.4018 101.344 78.4018 103.002V145.201C78.4018 146.747 79.655 148 81.2009 148C82.7468 148 84 146.747 84 145.201V109M84 112L84 109.408C84 107.526 85.5257 106 87.4076 106C89.2896 106 90.8153 107.526 90.8153 109.408L90.8153 132.849C90.8153 134.865 92.4499 136.5 94.4663 136.5C96.4827 136.5 98.1173 134.865 98.1173 132.849V117.476C98.1173 115.28 99.8972 113.5 102.093 113.5C104.289 113.5 106.068 115.28 106.068 117.476V125.443C106.068 127.684 107.885 129.5 110.125 129.5C112.366 129.5 114.182 127.684 114.182 125.443V122.773C114.182 120.689 115.882 119 117.966 119C120.037 119 121.727 120.679 121.727 122.75V122.93C121.727 124.902 123.326 126.5 125.297 126.5C127.269 126.5 128.867 124.902 128.867 122.93V122.489C128.867 120.562 130.429 119 132.356 119C134.283 119 135.845 120.562 135.845 122.489V123.092C135.845 124.974 137.37 126.5 139.252 126.5C141.134 126.5 142.66 124.974 142.66 123.092V122.864C142.66 120.83 144.469 119.272 146.481 119.574C148.109 119.819 149.313 121.218 149.313 122.864V123.917C149.313 125.794 150.996 127.223 152.849 126.919C154.319 126.677 155.398 125.407 155.398 123.917V122.252C155.398 120.456 156.854 119 158.65 119C160.446 119 161.902 120.456 161.902 122.252V123.25C161.902 125.597 163.805 127.5 166.152 127.5H169" stroke="black"/>
</svg>
